<svg id="Capa_1" data-name="Capa 1" xmlns="http://www.w3.org/2000/svg" viewBox="0 0 800 800"><defs><style>.cls-1{fill:#ffffff;}</style></defs><title>Mesa de trabajo 1 copia 21</title><path class="cls-1" d="M670.24,526.08c-37.15,90.23-108,136.19-200.87,147.62-102.7,12.64-192.78-15.94-258.13-99.86C102.39,434,167.54,234.73,337.38,183.28c107.19-32.47,239.11,8.92,294.08,93.88,10,15.48,16.77,34.53,19.7,52.79,4.92,30.59-13,57.33-41.33,68.85-24.37,9.92-47.76,2.73-68.17-22.36a163.22,163.22,0,0,1-20.95-32.5c-32.9-69.3-103.1-97-170.53-85.45C277.47,271,224.53,331.66,217.73,405.31,205.56,537,292.41,638.41,428.67,648.49c83.84,6.2,158.94-15.05,215.6-82.19,5.14-6.09,9.47-12.92,13.8-19.65S666.21,532.95,670.24,526.08Z"/><path class="cls-1" d="M626.47,558.38c-57,58.26-126.6,81.08-207.45,69C337.25,615.22,270.16,550.19,257.13,469c-7.9-49.18,2.42-94.81,37.26-132.07,38.56-41.24,107.45-46,152.1-11.61a68.74,68.74,0,0,1,11.65,11.76c15.16,19.09,16.33,43.44,3.06,57.52-13.54,14.37-37.54,15.44-57.79,2.09-5.6-3.69-10.27-8.78-15.49-13.07-25-20.5-48.37-18.34-68.93,6.85-22.16,27.14-24.16,58.87-17.5,91.19,17.26,83.8,100.72,141.83,189.2,133.09C541.77,609.74,587.57,592.8,626.47,558.38Z"/><path class="cls-1" d="M263.8,646.37c-49.25-22.22-87.5-57.69-113.22-105.2-59.81-110.46-52.77-220.83,3.95-330.12,17.95-34.58,38.68-67.53,69.74-92,10.32-8.14,22.95-16.19,35.39-17.88,9.44-1.28,23.17,5.15,29.52,12.73,5,5.93,5.66,22.14,1,28.1-13.06,16.67-28.81,31.72-45.41,45-54.71,43.86-94.58,97.81-107.52,167.23-20.75,111.33,12.89,204,102.83,274.67C247.79,635,255.89,640.57,263.8,646.37Z"/><path class="cls-1" d="M450,583.16c-5.16-4.69-10.26-9.26-15.28-13.92-14.18-13.18-27.85-26.86-40.09-41.9-8.37-10.28-16.08-21-21.38-33.24-4.17-9.63-6.11-19.63-4.33-30.1,2.25-13.23,9.51-22.77,21.78-28.23,12-5.34,24.23-6.18,36.51-.88,6.74,2.91,11.53,8.2,15.8,13.92,2.59,3.47,4.77,7.24,7.27,11.09.41-.6.87-1.18,1.24-1.82,3.69-6.32,7.85-12.27,13.31-17.22,7.7-7,17-9.44,27.11-9.26,11.4.2,21.69,3.8,30.06,11.76,6.94,6.6,10.1,15,10.7,24.46.68,10.82-3,20.55-7.43,30.14-5.25,11.48-12.8,21.38-20.93,30.9-16.4,19.23-34.46,36.82-53.38,53.53C450.7,582.59,450.45,582.77,450,583.16Z"/></svg>