<svg id="Capa_1" data-name="Capa 1" xmlns="http://www.w3.org/2000/svg" viewBox="0 0 954 394"><defs><style>.cls-1{fill:#fff;}</style></defs><title>Mesa de trabajo 1 copia 9</title><path class="cls-1" d="M73,359.49A1249.72,1249.72,0,0,1,62.82,231.76q-2-65.91,0-127.33-3.52,2-6.26,3.52a13.19,13.19,0,0,1-6.65,1.56,7.1,7.1,0,0,1-5.09-2.35,8,8,0,0,1-2.35-5.87v-1.17A3,3,0,0,1,42.87,99Q46,95.44,50.5,86.83t9.58-17q5.08-8.41,9.78-14.87t8.21-6.45a7.17,7.17,0,0,1,5.28,1.76,15.66,15.66,0,0,1,2.93,4.11q1.17,2.35,2.54,5.28a9.78,9.78,0,0,0,4.11,4.5A147.47,147.47,0,0,1,118.76,52a139.27,139.27,0,0,1,28.36-7,117.38,117.38,0,0,1,27.77-.59A72.88,72.88,0,0,1,199.34,51,53.79,53.79,0,0,1,218.12,66.1q7.82,9.78,10.17,24.64a69.36,69.36,0,0,1-11.15,36.18,141.73,141.73,0,0,1-26.6,30.9,221.19,221.19,0,0,1-34.23,24.64q-18.39,10.76-33.84,18.58T97,213.57q-10,4.69-9.19,5.48V359.49a4.29,4.29,0,0,1-2.74,4.3A13,13,0,0,1,80,365Q75.72,365,73,359.49ZM87.85,89.18Q86.68,100.53,84.92,114t-2.54,27.77a220.52,220.52,0,0,0,.2,28,83.08,83.08,0,0,0,5.28,24.64q16.81-7.43,35.21-16.63a281.32,281.32,0,0,0,35.21-20.93,195.31,195.31,0,0,0,30.32-26A95,95,0,0,0,208.73,99a21.57,21.57,0,0,0-6.85-16,56.09,56.09,0,0,0-16.63-11,85.57,85.57,0,0,0-20.15-6.06,105.79,105.79,0,0,0-17-1.76q-3.92,0-12.71,2.15T117,71.77a112.48,112.48,0,0,0-18,8Q90.59,84.48,87.85,89.18Z"/><path class="cls-1" d="M387.11,193.62q-14.48-5.47-27.77,4.3t-25.43,27.58A315.21,315.21,0,0,0,310.83,266q-11,22.69-20.34,43t-17,34.82q-7.63,14.48-13.89,16-4.69,0-7.24-1.76t-2.54-8.8v-275c0-2.35,1-3.78,2.93-4.3a17.6,17.6,0,0,1,6.45-.39,23,23,0,0,1,6.65,1.76q3.12,1.38,3.91,2.93l5.09,220.24q4.3-7,8-19.75t8.8-27.38a305.84,305.84,0,0,1,11.93-29.34,112.81,112.81,0,0,1,17-26.4,69.34,69.34,0,0,1,24.84-18.19q14.67-6.45,34.62-4.5,13.29,0,21.52,8.41t8.61,22.1l3.91,156.08a24.81,24.81,0,0,1-.59,4.5,8.84,8.84,0,0,1-3.13,5.09,13.41,13.41,0,0,1-7,2.74q-4.5.59-11.54-2.15Z"/><path class="cls-1" d="M445,280.08l-5.87,1.17a28.29,28.29,0,0,1-8.21.39,17.92,17.92,0,0,1-7.63-2.35q-3.32-2-3.33-6.65a5.4,5.4,0,0,1,1.17-3.91q1.17-1.17,3.91-3.52A60.53,60.53,0,0,0,439.72,247a225.11,225.11,0,0,0,11.15-23.86q5.08-12.71,10.76-25.43a124.69,124.69,0,0,1,13.1-22.88,58.42,58.42,0,0,1,18.39-16.43q10.95-6.25,27-5.87A42.33,42.33,0,0,1,535,155.68a62.36,62.36,0,0,1,15.26,8.41A47.47,47.47,0,0,1,562,176.8a30.16,30.16,0,0,1,4.69,16.43q2,3.14-3.72,9a107.35,107.35,0,0,1-15.45,12.71q-9.78,6.85-22.1,14.08t-23.67,13.5q-11.35,6.26-20,11t-11.34,7a40.34,40.34,0,0,0-3.13,9q-1.17,5.09-1.76,9.58t-.78,8.21c-.13,2.48-.2,4.37-.2,5.67q0,7.44-.59,16.43a72.55,72.55,0,0,0,.78,17,24.57,24.57,0,0,0,6.45,13.3q5.08,5.28,17.21,5.28a48.27,48.27,0,0,0,24.25-6.45,106.68,106.68,0,0,0,21.12-15.84,155.73,155.73,0,0,0,17.8-20.34q8-10.95,14.47-20.54T577.62,266q5.08-6.25,8.61-6.26a29.12,29.12,0,0,1,8.41,1.37q4.49,1.38,4.5,6.45,0,7-5.67,16.82a149.38,149.38,0,0,1-14.87,20.73,218.67,218.67,0,0,1-21.12,21.71A241.69,241.69,0,0,1,533.41,346a150.15,150.15,0,0,1-23.86,13.69Q497.82,365,488.82,365q-17.6,0-26.6-8.61a47.1,47.1,0,0,1-12.71-21.52,104,104,0,0,1-3.91-27.58Q445.39,292.59,445,280.08Zm72-105.62q-6.66,0-14.08,6.45A86.09,86.09,0,0,0,489,196.56a104.18,104.18,0,0,0-10.56,18.78q-4.11,9.59-4.11,15.84,5.87,0,17-4.5a152.06,152.06,0,0,0,22.1-11.15,125.5,125.5,0,0,0,19.17-14.08q8.21-7.43,8.21-14.08a7.42,7.42,0,0,0-2.74-5.87,24.54,24.54,0,0,0-6.45-3.91,40.41,40.41,0,0,0-7.63-2.35A36.57,36.57,0,0,0,517,174.46Z"/><path class="cls-1" d="M630,280.08l-5.87,1.17a28.29,28.29,0,0,1-8.21.39,17.92,17.92,0,0,1-7.63-2.35q-3.32-2-3.33-6.65a5.4,5.4,0,0,1,1.17-3.91q1.17-1.17,3.91-3.52A60.53,60.53,0,0,0,624.75,247a225.11,225.11,0,0,0,11.15-23.86q5.08-12.71,10.76-25.43a124.69,124.69,0,0,1,13.1-22.88,58.42,58.42,0,0,1,18.39-16.43q10.95-6.25,27-5.87A42.33,42.33,0,0,1,720,155.68a62.36,62.36,0,0,1,15.26,8.41A47.47,47.47,0,0,1,747,176.8a30.16,30.16,0,0,1,4.69,16.43q2,3.14-3.72,9a107.35,107.35,0,0,1-15.45,12.71q-9.78,6.85-22.1,14.08t-23.67,13.5q-11.35,6.26-20,11t-11.34,7a40.34,40.34,0,0,0-3.13,9q-1.17,5.09-1.76,9.58t-.78,8.21c-.13,2.48-.2,4.37-.2,5.67q0,7.44-.59,16.43a72.55,72.55,0,0,0,.78,17,24.57,24.57,0,0,0,6.45,13.3q5.08,5.28,17.21,5.28a48.27,48.27,0,0,0,24.25-6.45,106.68,106.68,0,0,0,21.12-15.84,155.73,155.73,0,0,0,17.8-20.34q8-10.95,14.47-20.54T762.65,266q5.08-6.25,8.61-6.26a29.12,29.12,0,0,1,8.41,1.37q4.49,1.38,4.5,6.45,0,7-5.67,16.82a149.38,149.38,0,0,1-14.87,20.73,218.67,218.67,0,0,1-21.12,21.71A241.69,241.69,0,0,1,718.44,346a150.15,150.15,0,0,1-23.86,13.69Q682.85,365,673.85,365q-17.6,0-26.6-8.61a47.1,47.1,0,0,1-12.71-21.52,104,104,0,0,1-3.91-27.58Q630.42,292.59,630,280.08Zm72-105.62q-6.66,0-14.08,6.45A86.09,86.09,0,0,0,674,196.56a104.18,104.18,0,0,0-10.56,18.78q-4.11,9.59-4.11,15.84,5.87,0,17-4.5a152.06,152.06,0,0,0,22.1-11.15,125.5,125.5,0,0,0,19.17-14.08q8.21-7.43,8.21-14.08a7.42,7.42,0,0,0-2.74-5.87,24.54,24.54,0,0,0-6.45-3.91,40.41,40.41,0,0,0-7.63-2.35A36.57,36.57,0,0,0,702,174.46Z"/><path class="cls-1" d="M811.94,344.62a406.43,406.43,0,0,0,3.72-45q1-27,.78-57.5t-1.37-63q-1.17-32.46-3.13-61.61t-4.5-52.22q-2.55-23.08-5.28-36.38,3.52-2.35,6.06-3.72a12.65,12.65,0,0,1,6.06-1.37,10.48,10.48,0,0,1,4.69,1,7.1,7.1,0,0,1,3.13,4.11q7.82,76.68,10.76,154.52t4.5,154.91v9.58c0,4-.13,6.2-.39,6.45a20.15,20.15,0,0,1-9.78,2.54,16.08,16.08,0,0,1-7.82-2.35,18.21,18.21,0,0,1-5.48-4.89A8.9,8.9,0,0,1,811.94,344.62Z"/><path class="cls-1" d="M858.88,349.32q5.47-5.87,9.39-8a21,21,0,0,1,10.17-2.15q10.56,0,10.56,10.17a12.74,12.74,0,0,1-1.37,5.28,29.38,29.38,0,0,1-3.52,5.67,14.46,14.46,0,0,1-4.89,4.11,5.44,5.44,0,0,1-5.09.2,6,6,0,0,1-5.67,1,13.45,13.45,0,0,1-5.28-3.33,17.06,17.06,0,0,1-3.72-5.67A12.22,12.22,0,0,1,858.88,349.32Z"/></svg>