<svg id="Capa_1" data-name="Capa 1" xmlns="http://www.w3.org/2000/svg" viewBox="0 0 800 800"><title>Mesa de trabajo 1 copia 12</title><path d="M426.24,36c105.13,0,204,78.93,222.06,183.85C668.71,338.24,630.78,439,542.92,520.7c-20.22,18.81-40.92,37.19-62.29,54.67-37.12,30.36-59.3,72.35-87.79,109.48-39.5,51.49-91.83,74.76-156.77,61.67-56.34-11.36-84-51.41-96.18-104-3.33-14.39-3-29.77-3.16-44.71-.14-16.57,10.09-27.72,24.67-28.83,12.16-.92,24.15,9.13,27,23.79,2.62,13.25,3.31,26.92,6.41,40,14.23,60.27,86.62,82.64,132.44,40.36a218.56,218.56,0,0,0,36.86-44.52c29.37-47.14,67.45-85.87,109.94-120.93,39.43-32.53,77-67,97.79-115.26,24.68-57.16,37.49-115.76,18.81-177.57-34.27-113.39-172.08-160.1-266.45-89.8C299,143.9,279.55,167.81,272.8,200a86,86,0,0,1-5.59,16.39c-6.44,14.81-18.41,20.92-32.62,17-12.84-3.51-21.69-17.37-19.08-31.82,5.86-32.4,18.12-62.21,39.76-87.35C300.48,61.72,357.28,36,426.24,36Z"/><path d="M545.37,260.11c-1.53,10.46-2.4,21.59-5.14,32.23-.89,3.47-6.66,5.69-10.2,8.48-2.28-3.16-5.82-6-6.58-9.52-1.63-7.49-2-15.27-2.58-23-1.75-24.75-9.72-45.47-35.35-54.66-26.89-9.64-52.86-9.22-74.15,12-30,29.9-33.53,68.49-31.39,107.91,1.55,28.47,6.29,56.79,7.23,85.25,1.67,50.57-16,92.93-58.68,122.5-14.72,10.19-31.63,15.4-49.54,12.35-22.26-3.8-39.94-13.58-45-38.61-4.79-23.64,3.67-41.79,21.27-56.36,9.27-7.67,20.11-13.45,29.37-21.13,20.63-17.1,20.56-42.31.24-59.5-5.15-4.36-11-7.94-16.41-11.95-17.1-12.55-20-24.49-7.8-42,7.66-11,16.83-21.66,27.47-29.59,23.1-17.21,40-38.7,53.26-64a355.2,355.2,0,0,1,27.87-44c26.16-35.9,62.37-40.84,102.52-31.1,38.34,9.3,59.72,35.5,69.22,72.35C543.62,238,543.91,248.8,545.37,260.11Z"/><path d="M555.72,693.42q18.49-19.82,31.71-27.09t34.35-7.27q35.68,0,35.68,34.35,0,7.93-4.62,17.84a99.35,99.35,0,0,1-11.89,19.16,48.9,48.9,0,0,1-16.52,13.87q-9.26,4.61-17.18.66-9.26,6.59-19.16,3.3A45.4,45.4,0,0,1,570.26,737a57.71,57.71,0,0,1-12.55-19.16Q553.06,706.65,555.72,693.42Z"/></svg>