<svg id="Capa_1" data-name="Capa 1" xmlns="http://www.w3.org/2000/svg" viewBox="0 0 1366 394"><title>Mesa de trabajo 1 copia 2</title><path d="M681.16,137H663.93c1.25-8.7,1.76-17.25,3.78-25.44,12.85-52,62.86-87.66,114.35-82,56,6.18,97,49.66,98.74,104.77.63,19.63-4.81,37.74-13,55.42-21.67,46.81-42.91,93.81-64.29,140.75-13.26,29.11-43.86,46.68-74.57,42.73-32.79-4.21-58-28.11-63.54-60.38-.6-3.51-.65-7.12-1-11.18h16.88c.77,12.8,4.59,24.51,12.82,34.57,25.63,31.32,75.64,25.77,92.79-10.91,23.67-50.62,47.28-101.29,69.44-152.58,15.1-34.94,9.08-68.34-16.45-96.5-25.07-27.66-57.19-36.74-93-26.08C710.74,61,689.57,86.55,682.54,123.64,681.75,127.85,681.64,132.18,681.16,137Z"/><path d="M768.19,281c18.4-40.3,36.59-79.82,54.51-119.47,13.86-30.65.26-64.16-30.63-76.22-32.15-12.55-70.69,10-74,43.9,24,4.22,42.8,16.35,54.59,38.15a69.62,69.62,0,0,1,6.83,49.48c-7.4,33.49-38.36,58.5-70.55,56.85V257.34c19.36-1.14,35.3-9.08,46.24-25.69a53.76,53.76,0,0,0,8.66-36.37c-3.27-30-24.26-46.67-63.31-49.84a72.55,72.55,0,0,1,3.62-32C714.86,82.41,746.53,61.88,778.7,65c34,3.29,61,28.5,65.77,61.72,2,13.56.53,26.87-5.19,39.45q-27.22,59.91-54.63,119.72c-.22.48-.54.91-1.17,2Z"/><path d="M165.44,219.63H64L42.1,268.29h-20L105.33,86.14h19l83.27,182.14H187.3Zm-7-15.61L114.7,106.18,71,204Z"/><path d="M354.61,131.42V268.29H336.92v-25a50.69,50.69,0,0,1-20,19.39q-12.75,6.9-29.14,6.89-26.8,0-42.28-15T230,210.78V131.42h18.47V209q0,21.6,10.67,32.79t30.45,11.19q21.59,0,34.09-13.14t12.49-36.56V131.42Z"/><path d="M531.29,75.21V268.29H513.59V241.22a56.33,56.33,0,0,1-22,21.08,64.47,64.47,0,0,1-30.83,7.29,69.46,69.46,0,0,1-34.87-8.85A63.19,63.19,0,0,1,401.44,236q-8.85-15.87-8.85-36.17t8.85-36.17a62.33,62.33,0,0,1,24.46-24.59,70.28,70.28,0,0,1,34.87-8.72,64.81,64.81,0,0,1,30.05,6.89,57,57,0,0,1,22,20.17V75.21ZM488.22,246.56a47.14,47.14,0,0,0,18.22-18.86,57.43,57.43,0,0,0,6.64-27.84A57.44,57.44,0,0,0,506.44,172a47.14,47.14,0,0,0-18.22-18.86,54.33,54.33,0,0,0-52,0A47.11,47.11,0,0,0,418,172a57.45,57.45,0,0,0-6.64,27.84A57.45,57.45,0,0,0,418,227.69a47.11,47.11,0,0,0,18.22,18.86,54.33,54.33,0,0,0,52,0Z"/><path d="M582.54,97.59a12.78,12.78,0,0,1-3.9-9.37,12.48,12.48,0,0,1,3.9-9.11,13.09,13.09,0,0,1,9.63-3.9A13.35,13.35,0,0,1,601.8,79a12.07,12.07,0,0,1,3.9,9,13.62,13.62,0,0,1-23.16,9.63Zm.26,33.83h18.48V268.29H582.81Z"/><path d="M680.46,251.48a47.11,47.11,0,0,1-18.22-18.86,61.73,61.73,0,0,1,0-55.69,47.11,47.11,0,0,1,18.22-18.86,48.5,48.5,0,0,1,7.54-3.47,71.94,71.94,0,0,1,.89-17.31A68.32,68.32,0,0,0,671,144.14a64.56,64.56,0,0,0-25,24.72q-9.11,15.87-9.11,35.91T646,240.68a65.44,65.44,0,0,0,25,24.85,68.54,68.54,0,0,0,24.37,8.14V257A49.1,49.1,0,0,1,680.46,251.48Z"/><path d="M956.14,93Q950,99.48,950,112.22v16.13h42.15V144H950.54V265.22H932.07V144H907.61V128.36h24.46V111.44q0-18.74,10.8-29.66t30.57-10.93a51.77,51.77,0,0,1,15.09,2.21,34.27,34.27,0,0,1,12.23,6.37l-6.25,13.79q-8.06-6.77-20.29-6.77Q962.25,86.46,956.14,93Z"/><path d="M1128.79,202.51H1014.29q1.56,21.34,16.39,34.48t37.47,13.14a59,59,0,0,0,23.42-4.56,51.08,51.08,0,0,0,18.48-13.4l10.41,12a58.59,58.59,0,0,1-22.77,16.65,77,77,0,0,1-30.05,5.72q-21.08,0-37.34-9a64.71,64.71,0,0,1-25.37-24.85q-9.11-15.87-9.11-35.91t8.72-35.91a63.13,63.13,0,0,1,23.94-24.72,70.35,70.35,0,0,1,68.3,0,62.78,62.78,0,0,1,23.68,24.59q8.59,15.75,8.59,36Zm-99.27-46.7q-13.41,12.62-15.22,32.91h97.06q-1.83-20.3-15.22-32.91t-33.44-12.62Q1042.91,143.19,1029.52,155.81Z"/><path d="M1280.74,202.51H1166.25q1.56,21.34,16.39,34.48t37.47,13.14a59,59,0,0,0,23.42-4.56,51.11,51.11,0,0,0,18.48-13.4l10.41,12a58.57,58.57,0,0,1-22.77,16.65,77,77,0,0,1-30.05,5.72q-21.08,0-37.34-9a64.71,64.71,0,0,1-25.37-24.85q-9.11-15.87-9.11-35.91t8.72-35.91a63.17,63.17,0,0,1,23.94-24.72,66.85,66.85,0,0,1,34.22-8.85,66.18,66.18,0,0,1,34.09,8.85,62.76,62.76,0,0,1,23.68,24.59q8.59,15.75,8.59,36Zm-99.27-46.7q-13.41,12.62-15.22,32.91h97.06q-1.82-20.3-15.22-32.91t-33.43-12.62Q1194.87,143.19,1181.47,155.81Z"/><path d="M1313.52,72.15H1332V265.22h-18.48Z"/></svg>