<svg id="Capa_1" data-name="Capa 1" xmlns="http://www.w3.org/2000/svg" viewBox="0 0 800 800"><title>Mesa de trabajo 1 copia 3</title><path d="M237.16,273.65H201.64c2.58-17.93,3.63-35.57,7.8-52.44C235.93,114.1,339,40.51,445.17,52.22,560.58,65,645.09,154.59,648.71,268.2c1.29,40.46-9.92,77.8-26.79,114.25-44.66,96.49-88.46,193.39-132.54,290.15-27.33,60-90.42,96.23-153.71,88.09-67.59-8.69-119.54-58-131-124.48-1.25-7.24-1.34-14.67-2.06-23h34.8c1.58,26.38,9.46,50.52,26.44,71.26C316.7,749,419.78,737.55,455.13,661.94c48.78-104.35,97.47-208.8,143.15-314.52,31.12-72,18.71-140.87-33.9-198.92-51.67-57-117.88-75.73-191.66-53.77C298.14,116.93,254.5,169.63,240,246.1,238.37,254.76,238.15,263.7,237.16,273.65Z"/><path d="M416.57,570.45C454.5,487.38,492,405.9,528.94,324.17c28.57-63.19.53-132.27-63.14-157.12-66.28-25.86-145.72,20.71-152.59,90.5,49.49,8.69,88.23,33.7,112.52,78.65,17.36,32.12,22,66.39,14.09,102-15.26,69-79.07,120.6-145.44,117.18V521.7c39.92-2.34,72.78-18.72,95.32-53,15-22.75,20.81-47.91,17.86-75-6.75-61.94-50-96.21-130.52-102.73a149.55,149.55,0,0,1,7.47-65.93c22.12-64,87.41-106.35,153.72-99.92,70,6.78,125.66,58.75,135.58,127.23,4,28,1.09,55.4-10.69,81.32Q507,457.24,450.5,580.55c-.45,1-1.11,1.88-2.42,4.05Z"/><path d="M235.72,509.62a97.12,97.12,0,0,1-37.55-38.89q-13.68-25.21-13.68-57.4t13.68-57.39q13.68-25.21,37.55-38.89a100,100,0,0,1,15.53-7.16,148.3,148.3,0,0,1,1.83-35.69,140.84,140.84,0,0,0-36.94,14.15,133.08,133.08,0,0,0-51.49,51q-18.78,32.72-18.77,74t18.77,74a134.91,134.91,0,0,0,51.49,51.22,141.29,141.29,0,0,0,50.24,16.79V521A101.22,101.22,0,0,1,235.72,509.62Z"/></svg>